<svg xmlns="http://www.w3.org/2000/svg" x="0px" y="0px" width="48" height="48" viewBox="0,0,256,256"
style="fill:#000000;">
<g fill="none" fill-rule="nonzero" stroke="none" stroke-width="1" stroke-linecap="butt" stroke-linejoin="miter" stroke-miterlimit="10" stroke-dasharray="" stroke-dashoffset="0" font-family="none" font-weight="none" font-size="none" text-anchor="none" style="mix-blend-mode: normal"><g transform="scale(5.33333,5.33333)"><path d="M34.45,5h-20.9c-4.723,0 -8.55,3.827 -8.55,8.55v2.006v11.611v7.283c0,4.721 3.827,8.55 8.55,8.55h20.9c4.723,0 8.55,-3.829 8.55,-8.55v-7.283v-11.611v-2.006c0,-4.723 -3.827,-8.55 -8.55,-8.55z" fill="#da291c"></path><path d="M29.239,14.5c2.066,0 3.742,8.73 3.742,19.5h2.994c0,-11.598 -3.016,-21 -6.735,-21c-2.116,0 -4.004,2.826 -5.239,7.244c-1.235,-4.418 -3.124,-7.244 -5.24,-7.244c-3.719,0 -6.735,9.402 -6.735,21h2.994c0,-10.769 1.675,-19.5 3.741,-19.5c2.067,0 3.742,8.059 3.742,18h2.993c0.001,-9.941 1.676,-18 3.743,-18" fill="#ffcb00"></path></g></g>
</svg>