<svg width="35" height="33" viewBox="0 0 35 33" fill="none" xmlns="http://www.w3.org/2000/svg">
<path d="M12.5051 24.8674H29.6001C30.1707 24.8674 30.6688 24.3465 30.6688 23.6465C30.6688 22.9465 30.1707 22.4257 29.6001 22.4257H12.7538C11.9188 22.4257 11.4063 21.7743 11.2745 20.7819L11.0401 19.0729H29.6288C31.7676 19.0729 32.8663 17.6076 33.1738 15.2805L34.3457 6.67013C34.3768 6.46567 34.3964 6.25925 34.4045 6.05208C34.4045 5.27083 33.877 4.73333 33.0713 4.73333H9.1507L8.87195 2.66666C8.7257 1.41319 8.3157 0.777771 6.82195 0.777771H1.67945C1.09383 0.777771 0.595703 1.3486 0.595703 1.99999C0.595703 2.66666 1.09383 3.2368 1.68008 3.2368H6.6307L8.97445 21.1076C9.28258 23.4187 10.3807 24.8674 12.5051 24.8674ZM31.9138 7.19097L30.8751 14.9875C30.7576 15.9965 30.2745 16.6153 29.4101 16.6153L10.7188 16.6312L9.4732 7.19097H31.9138ZM13.6626 32.7778C13.9749 32.7806 14.2847 32.7144 14.5738 32.5829C14.8629 32.4514 15.1255 32.2573 15.3464 32.0119C15.5673 31.7664 15.742 31.4746 15.8603 31.1534C15.9787 30.8322 16.0383 30.488 16.0357 30.141C16.037 29.7943 15.9765 29.4507 15.8578 29.1302C15.739 28.8096 15.5642 28.5183 15.3436 28.2732C15.123 28.028 14.8608 27.8339 14.5723 27.7019C14.2838 27.5699 13.9746 27.5027 13.6626 27.5042C12.3301 27.5042 11.2751 28.6764 11.2751 30.141C11.2751 31.6222 12.3301 32.7778 13.6626 32.7778ZM27.3588 32.7778C28.692 32.7778 29.7463 31.6222 29.7463 30.141C29.7463 28.6757 28.692 27.5042 27.3588 27.5042C26.0407 27.5042 24.9713 28.6764 24.9713 30.141C24.9713 31.6222 26.0407 32.7778 27.3588 32.7778Z" fill="#FF0000"/>
</svg>
