<svg width="28" height="28" viewBox="0 0 28 28" fill="none" xmlns="http://www.w3.org/2000/svg">
<path d="M8.6575 27.7942C8.04208 27.7942 7.5234 27.5832 7.10146 27.1613C6.67951 26.7393 6.46903 26.2211 6.47 25.6067C6.47097 24.9923 6.68146 24.4736 7.10146 24.0507C7.5234 23.6297 8.04208 23.4192 8.6575 23.4192C9.27292 23.4192 9.79111 23.6297 10.2121 24.0507C10.6331 24.4716 10.844 24.9903 10.845 25.6067C10.846 26.2231 10.635 26.7413 10.2121 27.1613C9.78917 27.5813 9.27097 27.7923 8.6575 27.7942ZM22.3425 27.7942C21.7281 27.7942 21.2099 27.5832 20.7879 27.1613C20.366 26.7393 20.155 26.2211 20.155 25.6067C20.155 24.9923 20.366 24.4736 20.7879 24.0507C21.2099 23.6297 21.7281 23.4192 22.3425 23.4192C22.9569 23.4192 23.4756 23.6297 23.8985 24.0507C24.3195 24.4726 24.53 24.9913 24.53 25.6067C24.53 26.2211 24.3195 26.7393 23.8985 27.1613C23.4766 27.5832 22.9579 27.7942 22.3425 27.7942ZM3.55333 2.10421H1.64583C1.43875 2.10421 1.26521 2.03469 1.12521 1.89567C0.985208 1.75664 0.915694 1.5831 0.916667 1.37504C0.917639 1.16699 0.987152 0.993443 1.12521 0.854416C1.26326 0.715388 1.43681 0.645874 1.64583 0.645874H3.74437C3.97382 0.645874 4.18187 0.704694 4.36854 0.822332C4.55618 0.939971 4.70153 1.10428 4.80458 1.31525L10.46 13.2109H20.136C20.3042 13.2109 20.454 13.1686 20.5852 13.084C20.7155 12.9994 20.8273 12.8827 20.9206 12.734L25.8148 3.92712C25.8809 3.81532 25.9669 3.72636 26.0729 3.66025C26.1789 3.59414 26.3004 3.56157 26.4375 3.56254C26.7165 3.56254 26.9256 3.68261 27.0646 3.92275C27.2036 4.16289 27.2051 4.40448 27.069 4.64754L22.1631 13.5288C21.9522 13.8846 21.678 14.1637 21.3406 14.3659C21.0033 14.5681 20.6324 14.6692 20.2279 14.6692H9.8125L8.04062 17.9213C7.8909 18.1459 7.88604 18.3889 8.02604 18.6505C8.16604 18.912 8.37653 19.0432 8.6575 19.0442H23.8008C24.0089 19.0442 24.1824 19.1137 24.3215 19.2527C24.4605 19.3918 24.53 19.5653 24.53 19.7734C24.53 19.9814 24.4605 20.1545 24.3215 20.2925C24.1824 20.4306 24.0089 20.5006 23.8008 20.5025H8.6575C7.80681 20.5025 7.17049 20.1452 6.74854 19.4307C6.3266 18.7161 6.31785 17.9942 6.72229 17.265L8.91562 13.3567L3.55333 2.10421ZM17.5504 6.47921H11.125C10.9179 6.47921 10.7444 6.40969 10.6044 6.27067C10.4644 6.13164 10.3949 5.9581 10.3958 5.75004C10.3968 5.54199 10.4663 5.36844 10.6044 5.22942C10.7424 5.09039 10.916 5.02087 11.125 5.02087H17.5504L14.975 2.44546C14.8321 2.30351 14.7621 2.14115 14.765 1.95837C14.7679 1.7756 14.8408 1.61275 14.9837 1.46983C15.1247 1.33372 15.2919 1.26421 15.4854 1.26129C15.6789 1.25837 15.8461 1.32789 15.9871 1.46983L19.4696 4.92608C19.7058 5.16136 19.824 5.43601 19.824 5.75004C19.824 6.06407 19.7058 6.33921 19.4696 6.57546L15.9871 10.058C15.851 10.1941 15.6896 10.2587 15.5029 10.2519C15.3172 10.2461 15.1534 10.1717 15.0115 10.0288C14.8744 9.89268 14.8058 9.72546 14.8058 9.52712C14.8058 9.32879 14.8739 9.16157 15.01 9.02546L17.5504 6.47921Z" fill="black"/>
</svg>
