<svg width="44" height="33" viewBox="0 0 44 33" fill="none" xmlns="http://www.w3.org/2000/svg">
<path d="M15.7094 24.534H37.185C37.9018 24.534 38.5276 24.0132 38.5276 23.3132C38.5276 22.6132 37.9018 22.0924 37.185 22.0924H16.0219C14.9729 22.0924 14.3291 21.441 14.1634 20.4486L13.869 18.7396H37.2211C39.9079 18.7396 41.2882 17.2743 41.6745 14.9472L43.1467 6.33682C43.1857 6.13235 43.2104 5.92594 43.2205 5.71876C43.2205 4.93751 42.5578 4.40001 41.5457 4.40001H11.4954L11.1453 2.33335C10.9615 1.07987 10.4465 0.444458 8.56996 0.444458H2.10969C1.374 0.444458 0.74823 1.01529 0.74823 1.66668C0.74823 2.33335 1.374 2.90349 2.11048 2.90349H8.3297L11.274 20.7743C11.6611 23.0854 13.0406 24.534 15.7094 24.534ZM40.0916 6.85765L38.7867 14.6542C38.6391 15.6632 38.0322 16.282 36.9463 16.282L13.4654 16.2979L11.9006 6.85765H40.0916ZM17.1635 32.4445C17.5559 32.4473 17.945 32.3811 18.3082 32.2496C18.6714 32.1181 19.0013 31.924 19.2788 31.6785C19.5563 31.4331 19.7757 31.1413 19.9244 30.8201C20.0731 30.4989 20.148 30.1547 20.1447 29.8077C20.1464 29.461 20.0704 29.1174 19.9212 28.7969C19.772 28.4763 19.5524 28.185 19.2753 27.9399C18.9981 27.6947 18.6688 27.5006 18.3063 27.3686C17.9439 27.2366 17.5555 27.1694 17.1635 27.1708C15.4895 27.1708 14.1642 28.3431 14.1642 29.8077C14.1642 31.2889 15.4895 32.4445 17.1635 32.4445ZM34.3694 32.4445C36.0441 32.4445 37.3687 31.2889 37.3687 29.8077C37.3687 28.3424 36.0441 27.1708 34.3694 27.1708C32.7135 27.1708 31.3701 28.3431 31.3701 29.8077C31.3701 31.2889 32.7135 32.4445 34.3694 32.4445Z" fill="white"/>
</svg>
