<svg width="23" height="24" viewBox="0 0 23 24" fill="none" xmlns="http://www.w3.org/2000/svg">
<path d="M11.0742 24C11.9134 24 12.7182 23.6883 13.3115 23.1334C13.9049 22.5785 14.2383 21.8259 14.2383 21.0412H7.91016C7.91016 21.8259 8.24351 22.5785 8.83689 23.1334C9.43027 23.6883 10.2351 24 11.0742 24ZM11.0742 3.16683L9.81334 3.40501C8.38285 3.67701 7.0969 4.40311 6.1734 5.4603C5.24991 6.51749 4.74565 7.84074 4.74609 9.20582C4.74609 10.1349 4.5341 12.4561 4.01994 14.7418C3.76682 15.8765 3.4251 17.0586 2.97105 18.0823H19.1774C18.7233 17.0586 18.3832 15.878 18.1285 14.7418C17.6143 12.4561 17.4023 10.1349 17.4023 9.20582C17.4024 7.84099 16.898 6.51809 15.9745 5.46121C15.0511 4.40433 13.7653 3.67843 12.3351 3.40649L11.0742 3.16683ZM20.9145 18.0823C21.2672 18.7436 21.6754 19.2674 22.1484 19.5618H0C0.473027 19.2674 0.881191 18.7436 1.23398 18.0823C2.65781 15.4194 3.16406 10.5077 3.16406 9.20582C3.16406 5.62562 5.88516 2.63719 9.5001 1.95518C9.47802 1.74947 9.50229 1.54172 9.57134 1.34532C9.6404 1.14893 9.7527 0.968244 9.90102 0.814929C10.0493 0.661614 10.2304 0.539071 10.4324 0.455203C10.6345 0.371334 10.8531 0.328003 11.0742 0.328003C11.2953 0.328003 11.5139 0.371334 11.716 0.455203C11.9181 0.539071 12.0991 0.661614 12.2474 0.814929C12.3957 0.968244 12.508 1.14893 12.5771 1.34532C12.6462 1.54172 12.6704 1.74947 12.6483 1.95518C14.4368 2.29478 16.0446 3.20221 17.1993 4.52365C18.3541 5.84509 18.9847 7.49927 18.9844 9.20582C18.9844 10.5077 19.4906 15.4194 20.9145 18.0823Z" fill="black"/>
</svg>
