<svg width="24" height="24" viewBox="0 0 24 24" fill="none" xmlns="http://www.w3.org/2000/svg">
<path d="M5.275 10.4875C7.075 14.025 9.975 16.925 13.5125 18.725L16.2625 15.975C16.6125 15.625 17.1 15.525 17.5375 15.6625C18.9375 16.125 20.4375 16.375 22 16.375C22.3315 16.375 22.6495 16.5067 22.8839 16.7411C23.1183 16.9755 23.25 17.2935 23.25 17.625V22C23.25 22.3315 23.1183 22.6495 22.8839 22.8839C22.6495 23.1183 22.3315 23.25 22 23.25C16.3641 23.25 10.9591 21.0112 6.97398 17.026C2.98883 13.0409 0.75 7.63585 0.75 2C0.75 1.66848 0.881696 1.35054 1.11612 1.11612C1.35054 0.881696 1.66848 0.75 2 0.75H6.375C6.70652 0.75 7.02446 0.881696 7.25888 1.11612C7.4933 1.35054 7.625 1.66848 7.625 2C7.625 3.5625 7.875 5.0625 8.3375 6.4625C8.475 6.9 8.375 7.3875 8.025 7.7375L5.275 10.4875Z" fill="#F8F8F8"/>
</svg>
