<svg width="21" height="19" viewBox="0 0 21 19" fill="none" xmlns="http://www.w3.org/2000/svg">
<path d="M19.9668 18.8879L12.0981 11.6783C11.4698 12.1688 10.7473 12.5483 9.93049 12.817C9.11371 13.0856 8.29275 13.2199 7.46759 13.2199C5.45539 13.2199 3.75231 12.5817 2.35834 11.3053C0.964378 10.0289 0.267395 8.46885 0.267395 6.62521C0.267395 4.78157 0.963539 3.22077 2.35583 1.94281C3.74812 0.664845 5.45036 0.0250974 7.46257 0.0235623C9.47477 0.0220272 11.1787 0.660624 12.5743 1.93935C13.97 3.21808 14.6678 4.77888 14.6678 6.62175C14.6678 7.42153 14.5132 8.1956 14.2041 8.94396C13.895 9.69231 13.4887 10.3324 12.9852 10.8644L20.8539 18.0727L19.9668 18.8879ZM7.46885 12.0675C9.13591 12.0675 10.5433 11.5417 11.691 10.4902C12.8386 9.43864 13.4125 8.14878 13.4125 6.6206C13.4125 5.09242 12.8386 3.80295 11.691 2.75218C10.5433 1.70141 9.13591 1.17565 7.46885 1.17488C5.80179 1.17411 4.394 1.69988 3.24549 2.75218C2.09697 3.80448 1.52314 5.09396 1.52397 6.6206C1.52481 8.14725 2.09865 9.43672 3.24549 10.489C4.39232 11.5413 5.79969 12.0671 7.46759 12.0663" fill="black"/>
</svg>
